<?xml version="1.0" encoding="UTF-8"?>
<svg version="1.1" xmlns="http://www.w3.org/2000/svg" width="1918" height="548">
<path d="M0 0 C1.55854795 0.0002828 3.11709604 0.00012234 4.67564392 -0.0004425 C8.86483509 -0.00072688 13.05399703 0.00511116 17.24318147 0.01213145 C21.63670337 0.0184254 26.03022611 0.01897354 30.42375183 0.02015686 C38.72482802 0.02325249 47.02589088 0.03144181 55.32696122 0.04150635 C64.78536385 0.05272269 74.24376715 0.05819179 83.70217478 0.06320179 C103.14154681 0.07362608 122.5809006 0.09194933 142.02026367 0.11352539 C142.02026367 15.29352539 142.02026367 30.47352539 142.02026367 46.11352539 C124.11305952 43.84126671 106.25418019 41.30169452 88.3972168 38.66967773 C84.48970053 38.09383105 80.58156972 37.52227067 76.67327499 36.95173454 C73.63446164 36.50754748 70.59602142 36.06084962 67.55768585 35.61340714 C66.11450932 35.40124607 64.67120694 35.18993923 63.22777557 34.97951889 C61.23081357 34.68809251 59.23441027 34.39284534 57.23803711 34.09741211 C56.10605896 33.93103241 54.97408081 33.76465271 53.80780029 33.5932312 C51.02026367 33.11352539 51.02026367 33.11352539 48.02026367 32.11352539 C48.02026367 35.41352539 48.02026367 38.71352539 48.02026367 42.11352539 C49.75856445 42.30108398 49.75856445 42.30108398 51.53198242 42.49243164 C70.07012739 44.84073233 89.19814308 53.41489265 102.02026367 67.11352539 C102.65963867 67.74645508 103.29901367 68.37938477 103.95776367 69.03149414 C116.02331863 81.64311948 118.53370228 97.36006073 118.43994141 114.10986328 C117.96727344 133.63515388 110.0579754 150.56805653 96.02026367 164.11352539 C77.73304643 180.17737275 52.78214668 188.78592442 29.02026367 192.11352539 C28.35542969 192.21503906 27.6905957 192.31655273 27.00561523 192.42114258 C16.24106772 194.0299882 5.45619526 194.36221342 -5.41723633 194.42602539 C-6.44131592 194.4333519 -6.44131592 194.4333519 -7.48608398 194.44082642 C-16.28204494 194.4743208 -24.67916959 193.84996403 -33.39379883 192.52490234 C-46.74029893 190.40510994 -46.74029893 190.40510994 -58.91723633 195.23852539 C-61.38966789 197.07695022 -63.67705943 199.06946589 -65.97973633 201.11352539 C-67.20941848 202.09245776 -68.44513176 203.06386216 -69.68676758 204.02758789 C-79.01322867 211.21128297 -79.01322867 211.21128297 -83.54223633 221.67602539 C-83.21020256 225.1545293 -83.21020256 225.1545293 -81.22973633 227.80102539 C-67.85125561 237.32032898 -49.10677238 236.40736975 -33.3931427 236.4490509 C-30.31100774 236.45748045 -27.22914983 236.478114 -24.14709473 236.50158691 C-17.59135093 236.54941922 -11.03557853 236.58254247 -4.47973633 236.61352539 C3.10314144 236.64953159 10.68588306 236.69199237 18.26863098 236.74946594 C21.26248205 236.76910922 24.25622101 236.77776719 27.25012207 236.7857666 C53.40425389 236.92912255 79.63534535 239.04528942 104.02026367 249.11352539 C105.09663086 249.5530957 106.17299805 249.99266602 107.28198242 250.44555664 C122.71159926 257.44435016 135.62136872 270.53189766 142.02416992 286.26196289 C149.36523807 307.27756973 148.64728413 332.43423457 139.14526367 352.61352539 C129.18232345 371.02384635 113.57636348 381.5593621 95.02026367 390.11352539 C94.01737305 390.57758789 93.01448242 391.04165039 91.98120117 391.51977539 C60.22604013 404.87234985 22.28552326 406.33981171 -11.66723633 406.36352539 C-12.67263458 406.36453247 -13.67803284 406.36553955 -14.71389771 406.36657715 C-105.35672421 406.30563176 -105.35672421 406.30563176 -136.80004883 379.30883789 C-143.10353662 372.9601638 -148.05396205 365.58287198 -150.97973633 357.11352539 C-151.31618164 356.14286133 -151.31618164 356.14286133 -151.65942383 355.15258789 C-155.87372663 340.08501214 -152.96058482 323.56507698 -145.76879883 309.99633789 C-133.84278719 290.77931477 -113.22543789 281.11798962 -91.97973633 276.11352539 C-74.25418169 272.11352539 -74.25418169 272.11352539 -67.97973633 272.11352539 C-67.97973633 268.81352539 -67.97973633 265.51352539 -67.97973633 262.11352539 C-69.11668945 262.13672852 -70.25364258 262.15993164 -71.42504883 262.18383789 C-88.54001951 262.43163792 -109.60409741 261.92706291 -123.21020508 250.01196289 C-129.26303422 243.51819918 -131.32819488 237.5304559 -131.18676758 228.76196289 C-130.4600597 219.46558659 -125.79358934 212.36741802 -118.89770508 206.27368164 C-104.08318335 195.14386208 -82.27481269 186.32638812 -63.97973633 184.11352539 C-63.97973633 181.14352539 -63.97973633 178.17352539 -63.97973633 175.11352539 C-65.68516602 174.96657227 -65.68516602 174.96657227 -67.42504883 174.81665039 C-86.87742592 173.00013542 -105.41478389 168.17442585 -118.97973633 153.11352539 C-135.36955121 132.32249168 -138.93180289 109.63262686 -136.77758789 83.67797852 C-134.37067929 64.33188301 -124.46198659 47.82862971 -110.97973633 34.11352539 C-110.30555664 33.42645508 -109.63137695 32.73938477 -108.93676758 32.03149414 C-80.71843663 5.18966714 -37.0733686 -0.09551189 0 0 Z M-65.97973633 59.11352539 C-66.87499023 59.93916992 -66.87499023 59.93916992 -67.78833008 60.78149414 C-78.68969321 70.95087126 -83.65148632 84.91633761 -84.22973633 99.61352539 C-83.9929374 115.17121502 -79.03674769 127.59810036 -68.39379883 138.82836914 C-50.85546571 155.43018933 -26.24940728 159.36952923 -2.92553711 159.07495117 C18.90263603 158.24836831 39.51434744 153.51873026 55.02026367 137.11352539 C64.16131627 125.90836414 67.50540095 112.40247855 66.83276367 98.13696289 C65.00915038 82.14778211 58.77826283 66.49063034 46.02026367 56.11352539 C17.17047859 34.83235677 -39.54465095 31.08703019 -65.97973633 59.11352539 Z M-92.99926758 300.37524414 C-99.44393144 309.2859135 -102.05553071 319.40628158 -100.35473633 330.23852539 C-98.1752396 339.44725989 -92.69619808 345.420971 -84.90551758 350.45336914 C-48.40236116 370.84307791 20.88334101 364.15447795 59.64526367 354.45678711 C73.39469839 350.55946136 85.04125616 344.70215483 92.23120117 331.96899414 C96.93280211 322.98260085 97.4621995 312.70411254 95.30151367 302.82836914 C91.53477968 291.7863707 84.06551431 285.97277241 73.89526367 280.92602539 C57.9675558 274.25473413 39.60998671 274.9332489 22.66870117 274.84008789 C21.75337238 274.83476421 20.83804359 274.82944054 19.89497757 274.82395554 C15.05019221 274.79739479 10.2054311 274.77796607 5.3605957 274.76342773 C1.39421419 274.75011119 -2.57165017 274.72227494 -6.5378418 274.68139648 C-11.37582016 274.6315755 -16.21333186 274.60724864 -21.05155563 274.60020065 C-22.87326562 274.59357323 -24.69496872 274.57858034 -26.51652908 274.55430984 C-50.88508841 274.24810378 -76.59589453 281.24281434 -92.99926758 300.37524414 Z " fill="#000000" transform="translate(871.979736328125,134.886474609375)"/>
<path d="M0 0 C18.15 0 36.3 0 55 0 C55 134.97 55 269.94 55 409 C38.83 409 22.66 409 6 409 C6 381.37398481 6 381.37398481 6.40234375 372.32421875 C6.44436417 371.2966597 6.48638458 370.26910065 6.52967834 369.21040344 C6.61728686 367.09305119 6.70721098 364.97579335 6.79956055 362.85864258 C6.93940895 359.64361432 7.07080694 356.42831613 7.20117188 353.21289062 C7.28857671 351.12497961 7.37644975 349.03708812 7.46484375 346.94921875 C7.50343002 346.00946701 7.5420163 345.06971527 7.58177185 344.10148621 C7.86460641 337.71303145 8.3705699 331.36342636 9 325 C6.36 325.33 3.72 325.66 1 326 C0.56300781 327.57974609 0.56300781 327.57974609 0.1171875 329.19140625 C-5.54231918 349.27890073 -13.06877759 368.15188459 -27 384 C-27.68578125 384.82886719 -28.3715625 385.65773438 -29.078125 386.51171875 C-43.42994912 403.3673683 -63.95205525 414.00510965 -86 416 C-118.55355172 417.72307974 -149.43594317 413.19521797 -174.62768555 391.00366211 C-176.09387629 389.67872998 -177.54737915 388.33979593 -179 387 C-179.71285156 386.37996094 -180.42570312 385.75992187 -181.16015625 385.12109375 C-211.99542705 356.81849407 -222.02378464 309.21623994 -223.875 269.375 C-224.61847839 246.57791855 -223.2298464 223.23103778 -218 201 C-217.78859375 200.08718262 -217.5771875 199.17436523 -217.359375 198.23388672 C-214.25433359 185.1480327 -209.98837772 173.03913437 -204 161 C-203.2265625 159.42992187 -203.2265625 159.42992187 -202.4375 157.828125 C-188.85756992 131.70152039 -166.07235633 112.3465064 -138.1875 103.3125 C-112.08671916 95.3778869 -80.83565271 96.04825828 -56 108 C-27.50640351 123.57389726 -10.40153366 151.71995177 -1.35839844 182.15966797 C-0.15449513 186.41911986 0.94969051 190.6999094 2 195 C4.64 195 7.28 195 10 195 C9.91674469 194.38264481 9.83348938 193.76528961 9.74771118 193.12922668 C8.86666163 186.58997029 7.9913728 180.04995967 7.11914062 173.50952148 C6.7947134 171.08224805 6.46891136 168.6551579 6.14160156 166.22827148 C4.5586789 154.48502466 2.98493317 142.74419564 1.8359375 130.94921875 C1.76283356 130.21403519 1.68972961 129.47885162 1.6144104 128.72138977 C0.05754532 111.7743629 -0.13965646 94.83806874 -0.09765625 77.83203125 C-0.09578575 75.5723219 -0.09436484 73.31261213 -0.09336853 71.05290222 C-0.08959302 65.17260573 -0.07980659 59.29233487 -0.06866455 53.41204834 C-0.05651989 46.32064595 -0.0520245 39.22923488 -0.04621124 32.13782501 C-0.03659101 21.42519898 -0.01740005 10.71262891 0 0 Z M-137 166 C-137.69351562 166.69738281 -138.38703125 167.39476562 -139.1015625 168.11328125 C-162.83623975 193.17673387 -168.27900273 229.85846137 -168 263 C-167.11493641 292.43721484 -161.30237945 320.3124274 -143 344 C-142.35933594 344.84175781 -141.71867187 345.68351563 -141.05859375 346.55078125 C-130.0345041 359.66672852 -112.90600012 367.4905357 -96 369 C-73.35839243 370.2075524 -53.84554661 363.07907204 -36.65625 348.43359375 C-19.34996917 332.57798646 -8.97723831 312.46655864 -3 290 C-2.67902344 288.84113281 -2.35804688 287.68226563 -2.02734375 286.48828125 C5.53577496 253.94928214 -1.50612672 218.65855205 -18 190 C-20.470448 186.16000727 -23.15216175 182.56729212 -26 179 C-26.41797852 178.46987305 -26.83595703 177.93974609 -27.26660156 177.39355469 C-40.63698577 160.54119771 -57.28847768 148.71035516 -79 146 C-100.97517475 144.04717398 -121.55397594 149.80119137 -137 166 Z " fill="#000000" transform="translate(1858,31)"/>
<path d="M0 0 C31.52726268 -0.63203239 64.72563706 5.33354029 88.26660156 27.72412109 C113.33564692 52.37104163 118.57060827 90.10088682 118.97460938 123.66088867 C119.00012899 126.73185538 119.01542152 129.80258424 119.02302551 132.87364769 C119.03154683 136.21806076 119.05226075 139.56222927 119.07556152 142.90657043 C119.12319414 150.04053996 119.15635061 157.17453583 119.1875 164.30859375 C119.36279638 203.99787768 119.98974362 243.55161928 123.3125 283.12109375 C123.516036 285.58896779 123.71737481 288.05696823 123.91415405 290.52539062 C124.03246184 292.00619335 124.15439127 293.48671527 124.28140259 294.96679688 C124.72015086 300.40552805 124.6875 305.60896188 124.6875 311.12109375 C108.1875 311.12109375 91.6875 311.12109375 74.6875 311.12109375 C71.24101682 258.07522219 71.24101682 258.07522219 70.6875 233.12109375 C68.3775 233.12109375 66.0675 233.12109375 63.6875 233.12109375 C63.58566406 233.79140625 63.48382812 234.46171875 63.37890625 235.15234375 C56.64433808 264.06913364 33.26850717 288.72773599 9.1796875 304.4453125 C2.88244163 308.28064206 -3.41614694 311.11469804 -10.375 313.49609375 C-11.41793213 313.85453369 -11.41793213 313.85453369 -12.48193359 314.22021484 C-23.99515696 317.88967283 -35.68295728 318.46330796 -47.6875 318.43359375 C-48.98171875 318.44970703 -50.2759375 318.46582031 -51.609375 318.48242188 C-74.54199078 318.4938653 -97.52638004 311.28067113 -114.3125 295.12109375 C-134.30344874 273.35008141 -137.47599493 248.78727342 -136.3125 220.12109375 C-134.89908712 202.78702351 -127.25901071 185.04281469 -114.3125 173.12109375 C-113.6525 173.12109375 -112.9925 173.12109375 -112.3125 173.12109375 C-112.3125 172.46109375 -112.3125 171.80109375 -112.3125 171.12109375 C-103.72777247 163.21256051 -93.91314681 157.82905084 -83.3125 153.12109375 C-82.35657959 152.69570313 -82.35657959 152.69570313 -81.38134766 152.26171875 C-67.0758018 146.00373429 -52.16813699 142.70338055 -36.875 139.87109375 C-36.10879333 139.7269101 -35.34258667 139.58272644 -34.55316162 139.43417358 C-24.30729067 137.50663308 -14.04142833 135.72205163 -3.75390625 134.03125 C-2.68972977 133.85606842 -1.62555328 133.68088684 -0.52912903 133.50039673 C4.70442103 132.64126708 9.93946716 131.79333455 15.17749023 130.96191406 C35.64265423 127.82865419 35.64265423 127.82865419 54.734375 120.171875 C56.6875 119.12109375 56.6875 119.12109375 59.6875 118.12109375 C60.83770525 115.87365619 60.83770525 115.87365619 61.6875 113.12109375 C62.02910156 112.2496875 62.37070312 111.37828125 62.72265625 110.48046875 C66.25072735 98.1964965 63.85162405 84.39411474 58.21484375 73.1953125 C51.17249011 61.1583818 40.68447305 53.095689 27.33984375 49.125 C2.81825341 43.347083 -25.20166226 46.1078798 -47 59.37109375 C-64.45884514 71.13738968 -73.56178688 86.4541901 -77.57421875 106.92578125 C-77.81785156 107.65023437 -78.06148438 108.3746875 -78.3125 109.12109375 C-81.72564451 110.25880859 -82.45644069 109.98651404 -85.75219727 108.87353516 C-87.09357506 108.42779648 -87.09357506 108.42779648 -88.46205139 107.97305298 C-89.42461349 107.64292206 -90.3871756 107.31279114 -91.37890625 106.97265625 C-92.36874008 106.6406723 -93.35857391 106.30868835 -94.37840271 105.96664429 C-97.5468292 104.90150285 -100.71081864 103.82377232 -103.875 102.74609375 C-106.01210407 102.02655405 -108.14947088 101.3077942 -110.28710938 100.58984375 C-114.19368714 99.27358586 -118.09990746 97.95636373 -122.00219727 96.62744141 C-123.18109276 96.22653793 -123.18109276 96.22653793 -124.38380432 95.8175354 C-126.3125 95.12109375 -126.3125 95.12109375 -128.3125 94.12109375 C-125.97962708 72.50631196 -113.88840151 50.91820018 -98.3125 36.12109375 C-97.78785156 35.55261719 -97.26320313 34.98414063 -96.72265625 34.3984375 C-73.79174264 10.01313191 -39.25932058 1.57134441 -6.875 0.2109375 C-4.58298369 0.15313446 -2.29121461 0.08375902 0 0 Z M56.1875 157.30859375 C41.56002827 162.08023097 26.15112923 164.05783969 11.0078125 166.55859375 C-21.37593841 171.65257475 -21.37593841 171.65257475 -52.3125 182.12109375 C-53.03824219 182.42402344 -53.76398438 182.72695313 -54.51171875 183.0390625 C-65.91280881 188.16843308 -75.63405013 197.5040733 -80.3125 209.12109375 C-84.79059563 222.55538065 -84.62470175 237.60909346 -78.5625 250.43359375 C-71.68970762 263.1053047 -62.03513541 269.01062692 -48.3125 273.12109375 C-27.17719602 277.88182806 -6.66428206 272.56139921 11.6875 262.12109375 C12.68523437 261.56421875 13.68296875 261.00734375 14.7109375 260.43359375 C22.25734635 255.93602057 28.40291115 250.18897264 34.6875 244.12109375 C35.3578125 243.50234375 36.028125 242.88359375 36.71875 242.24609375 C44.18482615 235.18725811 49.58544445 226.51603 54.8125 217.74609375 C55.20800049 217.08754395 55.60350098 216.42899414 56.01098633 215.75048828 C57.28683706 213.56594567 58.48332726 211.34590109 59.6875 209.12109375 C60.2242334 208.23494385 60.7609668 207.34879395 61.31396484 206.43579102 C66.95821431 196.12908171 66.37874673 186.27402949 66.0625 174.80859375 C66.03233741 172.89262043 66.00497281 170.97660092 65.98046875 169.06054688 C65.91502956 164.41290133 65.81186391 159.76752057 65.6875 155.12109375 C62.08025988 155.12109375 59.60458932 156.1221044 56.1875 157.30859375 Z " fill="#000000" transform="translate(473.3125,128.87890625)"/>
<path d="M0 0 C19.47 0 38.94 0 59 0 C61.68537617 6.71344043 64.18650269 13.32244717 66.3984375 20.18359375 C66.70959 21.13934296 67.02074249 22.09509216 67.34132385 23.07980347 C68.35568674 26.19802605 69.36534033 29.31775173 70.375 32.4375 C71.09155151 34.64292845 71.80843484 36.84824912 72.52563477 39.0534668 C73.98742088 43.54972897 75.44741559 48.04656623 76.90576172 52.54394531 C79.62967734 60.94352753 82.36383437 69.33976692 85.09844971 77.73587036 C85.94539175 80.33673467 86.79184444 82.93775781 87.63818359 85.53881836 C92.60860313 100.81223217 97.60046414 116.07861154 102.59399414 131.34448242 C107.38662018 145.99677616 112.16918114 160.6522787 116.9375 175.3125 C122.27246144 191.71463567 127.63226663 208.10856166 133 224.5 C139.82543086 245.34349993 146.6307336 266.19342604 153.41421509 287.0506134 C156.5807834 296.78680568 159.75084711 306.52185959 162.92077637 316.25695801 C164.42385193 320.87309401 165.9267664 325.48928246 167.4296875 330.10546875 C167.93212809 331.64868191 168.43456941 333.19189483 168.93701172 334.73510742 C169.28779785 335.81252197 169.63858398 336.88993652 170 338 C171.65 338.33 173.3 338.66 175 339 C175.24951416 337.76701172 175.49902832 336.53402344 175.75610352 335.26367188 C177.08397627 329.30712506 178.98401238 323.56966157 180.90234375 317.78125 C181.29175644 316.59506073 181.68116913 315.40887146 182.0823822 314.18673706 C183.14218805 310.96197847 184.20590582 307.73856382 185.2715683 304.51573944 C186.16879638 301.79987831 187.06268133 299.08292171 187.95658493 296.36596489 C194.60847685 276.1497459 201.33293767 255.95777657 208.07888794 235.77276611 C213.35375342 219.98939738 218.56547776 204.18798269 223.69061279 188.35540771 C229.19247029 171.36974436 234.84123929 154.43383783 240.5 137.5 C246.66771416 119.04308666 252.79885004 100.57633654 258.78912354 82.06088257 C267.66500048 54.64357934 276.86348469 27.33123293 286 0 C305.14 0 324.28 0 344 0 C342.87483647 6.75098121 342.87483647 6.75098121 341.77929688 9.95849609 C341.53321686 10.68604599 341.28713684 11.41359589 341.03359985 12.16319275 C340.63024918 13.3315139 340.63024918 13.3315139 340.21875 14.5234375 C339.79159195 15.7776223 339.79159195 15.7776223 339.35580444 17.05714417 C338.40891955 19.83151912 337.45471086 22.60330918 336.5 25.375 C335.82167055 27.3548625 335.14345012 29.33476236 334.46533203 31.31469727 C329.35395121 46.20550797 324.10844496 61.04751246 318.82769775 75.87893677 C312.56160039 93.48420974 306.44387987 111.13855589 300.375 128.8125 C299.92079465 130.13502272 299.46658119 131.45754266 299.01235962 132.78005981 C298.78805236 133.43316855 298.5637451 134.08627729 298.33264065 134.75917721 C297.21791968 138.00483855 296.10313899 141.25047938 294.98828125 144.49609375 C294.77107737 145.12849283 294.55387348 145.76089191 294.33008766 146.41245461 C290.43769411 157.74387949 286.51468531 169.0643016 282.5625 180.375 C282.27386078 181.20118835 281.98522156 182.02737671 281.68783569 182.87860107 C280.15846529 187.25519741 278.62789047 191.63137145 277.09667969 196.00732422 C273.02805966 207.63493443 268.96437083 219.26426924 264.90147018 230.89387894 C264.42608414 232.25459253 263.95067374 233.61529761 263.4752388 234.97599411 C256.78645657 254.1193767 250.12499632 273.27192655 243.5 292.4375 C234.16117367 319.45126187 224.78227474 346.45088722 215.1875 373.375 C214.77242187 374.54095703 214.35734375 375.70691406 213.9296875 376.90820312 C213.55457031 377.95685547 213.17945313 379.00550781 212.79296875 380.0859375 C212.4683667 380.9939209 212.14376465 381.9019043 211.80932617 382.83740234 C211 385 211 385 210 387 C184.59 387 159.18 387 133 387 C126.00779543 367.18875373 119.02550781 347.38379941 112.2074585 327.51348877 C110.87938447 323.64313627 109.54961635 319.77336954 108.21923828 315.90380859 C107.99078594 315.23932331 107.7623336 314.57483803 107.52695847 313.89021683 C107.06363502 312.54260219 106.60030314 311.19499045 106.13696289 309.84738159 C105.44348379 307.83026167 104.75016931 305.81308523 104.05688477 303.79589844 C99.50998722 290.56752198 94.94449801 277.34558538 90.375 264.125 C89.59171349 261.85848051 88.80842899 259.59196033 88.02514648 257.32543945 C86.46448459 252.80968843 84.90366595 248.29399162 83.34277344 243.77832031 C79.79028712 233.50054468 76.23999907 223.22200963 72.68951416 212.94354248 C70.7097632 207.21233157 68.72987474 201.48116815 66.75 195.75 C65.95833267 193.45833356 65.16666601 191.16666689 64.375 188.875 C63.7871875 187.1734375 63.7871875 187.1734375 63.1875 185.4375 C55.66666667 163.66666667 48.14583333 141.89583333 40.625 120.125 C40.2331955 118.99083145 39.84139099 117.8566629 39.43771362 116.68812561 C38.64532893 114.39437563 37.8529502 112.10062359 37.06057739 109.80686951 C35.09244511 104.10956072 33.12421237 98.41228668 31.15576172 92.71508789 C27.46163372 82.02299224 23.76851333 71.33055107 20.07879639 60.63693237 C18.34520247 55.6126224 16.61094715 50.58854076 14.87670898 45.56445312 C14.05400843 43.18059522 13.23157213 40.79664609 12.40942383 38.41259766 C11.26581677 35.09644454 10.1213433 31.78059183 8.9765625 28.46484375 C8.44829865 26.93281815 8.44829865 26.93281815 7.90936279 25.36984253 C6.41755146 21.05317917 4.91660733 16.74149016 3.35449219 12.44970703 C3.11475677 11.79039688 2.87502136 11.13108673 2.62802124 10.45179749 C2.02069993 8.79221469 1.40601272 7.13533212 0.79052734 5.47875977 C0 3 0 3 0 0 Z " fill="#000000" transform="translate(15,53)"/>
<path d="M0 0 C31.1321213 29.04835294 37.50041585 74.974107 38.90916061 115.42837143 C39.24837726 128.76571259 39.12240146 142.11673726 39.10139394 155.45721841 C39.09506589 160.16566587 39.09454923 164.87411425 39.09336853 169.58256531 C39.0902827 178.46419656 39.08210706 187.34581525 39.07201904 196.22744101 C39.06077166 206.35348936 39.0553259 216.47953836 39.05032361 226.60559142 C39.03992158 247.40373615 39.02161104 268.20186369 39 289 C20.85 289 2.7 289 -16 289 C-16.01981934 283.87976318 -16.03963867 278.75952637 -16.06005859 273.48413086 C-16.12720386 256.49687211 -16.20474349 239.50967226 -16.28752708 222.52248287 C-16.33742923 212.23123056 -16.38387261 201.93998534 -16.421875 191.64868164 C-16.45504683 182.66799186 -16.49501228 173.68736099 -16.54279006 164.70673662 C-16.56780766 159.96138958 -16.58965851 155.21608034 -16.60334396 150.47068596 C-15.67479119 90.69571911 -15.67479119 90.69571911 -42.5546875 39.2265625 C-54.1674108 28.65267707 -70.11689468 26.48978323 -85.25 27.125 C-103.85903046 28.86959661 -120.79547963 37.88008207 -133 52 C-159.21634526 83.9643691 -168.01564562 126.35843144 -168.20532227 166.84667969 C-168.21492948 168.18833701 -168.22494109 169.5299915 -168.23532104 170.87164307 C-168.26206875 174.47410493 -168.28323899 178.07657948 -168.30332303 181.67908382 C-168.32537129 185.45870644 -168.35266672 189.23829129 -168.37937927 193.0178833 C-168.42905396 200.15732189 -168.47408505 207.29678173 -168.51740164 214.43626142 C-168.5669913 222.57183913 -168.62182799 230.70737891 -168.67708123 238.84291983 C-168.79051344 255.56191268 -168.89674264 272.28094074 -169 289 C-186.82 289 -204.64 289 -223 289 C-223 189.01 -223 89.02 -223 -14 C-206.5 -14 -190 -14 -173 -14 C-174.20772081 7.23092974 -174.20772081 7.23092974 -174.72851562 16.33984375 C-175.08268801 22.53461704 -175.43653228 28.72940775 -175.78833008 34.92431641 C-176.07224666 39.9235031 -176.35771184 44.92259926 -176.64421272 49.92163849 C-176.75278982 51.82079224 -176.86082606 53.71997699 -176.96829033 55.61919403 C-177.52346496 65.42456324 -178.09652696 75.21901381 -179 85 C-176.36 84.67 -173.72 84.34 -171 84 C-170.84966309 83.3922876 -170.69932617 82.7845752 -170.54443359 82.15844727 C-165.78101454 63.04536331 -160.34150152 45.37800937 -151 28 C-150.44570312 26.94039062 -149.89140625 25.88078125 -149.3203125 24.7890625 C-138.23165211 4.574806 -120.42364689 -10.38697075 -98.35400391 -17.30102539 C-64.84645788 -26.86884275 -27.04420022 -23.28308628 0 0 Z " fill="#000000" transform="translate(1564,151)"/>
<path d="M0 0 C0.18075375 9.38848377 -0.30783458 18.7362945 -0.79956055 28.10791016 C-0.93791401 30.75792987 -1.06980295 33.40821962 -1.20117188 36.05859375 C-1.28867563 37.76304074 -1.37655317 39.46746859 -1.46484375 41.171875 C-1.50343002 41.9543158 -1.5420163 42.73675659 -1.58177185 43.54290771 C-1.82538143 48.08263371 -2.28931349 52.50902654 -3 57 C-8.20272067 56.34625499 -13.16851342 55.27527656 -18.25 54 C-35.08015089 49.97248808 -51.82012797 49.89630793 -67.21484375 58.875 C-90.21208793 73.90237076 -102.14150214 98.93936205 -110.6875 124.1875 C-111.03176025 125.19973633 -111.37602051 126.21197266 -111.73071289 127.25488281 C-112.65361686 130.08631634 -113.51024167 132.92976029 -114.34407902 135.78842354 C-114.79304692 137.30221387 -115.25578634 138.81196901 -115.7302084 140.317976 C-121.24836032 158.05012039 -121.88425462 175.14326914 -121.81029272 193.51124382 C-121.80074812 197.48304611 -121.82551181 201.45465265 -121.84622192 205.4263916 C-121.88021957 212.90552641 -121.88455147 220.38435408 -121.87749684 227.86355066 C-121.87094771 236.39607927 -121.89857886 244.92839847 -121.92869925 253.46086407 C-121.98977631 270.973998 -122.00466274 288.48675168 -122 306 C-139.82 306 -157.64 306 -176 306 C-176 206.01 -176 106.02 -176 3 C-159.83 3 -143.66 3 -127 3 C-127 19.08681793 -127 19.08681793 -127.35131836 25.92626953 C-127.38872635 26.70883118 -127.42613434 27.49139282 -127.4646759 28.29766846 C-127.58641231 30.82622416 -127.71297852 33.35450939 -127.83984375 35.8828125 C-127.92736778 37.67250421 -128.01464832 39.46220785 -128.10169983 41.25192261 C-128.2836836 44.97844124 -128.46796471 48.70483646 -128.65405273 52.43115234 C-128.89089372 57.175714 -129.12288348 61.92049735 -129.3532629 66.66537666 C-129.53268322 70.35289428 -129.7142084 74.04030593 -129.89639473 77.72768784 C-129.98262666 79.47612804 -130.06833725 81.22459404 -130.15348625 82.97308731 C-130.61082851 92.33192518 -131.12601886 101.66852617 -132 111 C-129.36 110.67 -126.72 110.34 -124 110 C-123.88519287 109.33806641 -123.77038574 108.67613281 -123.65209961 107.99414062 C-117.28007415 71.81025007 -107.63449183 30.67567233 -76 8 C-52.41746176 -7.79467084 -26.40795462 -6.87084792 0 0 Z " fill="#000000" transform="translate(1220,134)"/>
<path d="M0 0 C18.15 0 36.3 0 55 0 C55 134.97 55 269.94 55 409 C36.85 409 18.7 409 0 409 C0 274.03 0 139.06 0 0 Z " fill="#000000" transform="translate(639,31)"/>
<path d="M0 0 C17.82 0 35.64 0 54 0 C54 99.99 54 199.98 54 303 C36.18 303 18.36 303 0 303 C-1.64756822 301.35243178 -1.12543764 299.44912806 -1.12584114 297.17891693 C-1.12844889 296.12904051 -1.13105664 295.07916409 -1.13374341 293.99747324 C-1.13151268 292.82989276 -1.12928196 291.66231229 -1.12698364 290.45935059 C-1.12854363 289.23005247 -1.13010362 288.00075435 -1.13171089 286.73420477 C-1.13502429 283.30650184 -1.13381162 279.87885322 -1.13072467 276.45115352 C-1.12847251 272.76059066 -1.13194926 269.07003272 -1.13470459 265.37947083 C-1.13916327 258.14351788 -1.13818539 250.90757528 -1.13529195 243.67162192 C-1.1330383 237.79350615 -1.13272523 231.9153933 -1.13381577 226.03727722 C-1.133969 225.2023177 -1.13412223 224.36735818 -1.13428011 223.50709686 C-1.13459982 221.81116712 -1.13492403 220.11523738 -1.1352527 218.41930765 C-1.13810778 202.49724398 -1.13482003 186.57518605 -1.12945233 170.65312332 C-1.12498427 156.97594001 -1.12576019 143.29876519 -1.13037109 129.62158203 C-1.13571637 113.75849915 -1.13783308 97.89542132 -1.13475883 82.03233767 C-1.13444026 80.34246604 -1.13412589 78.65259441 -1.13381577 76.96272278 C-1.13366149 76.13116129 -1.13350721 75.2995998 -1.13334826 74.44283947 C-1.13248297 68.56827095 -1.13394626 62.69370561 -1.13629532 56.81913757 C-1.139093 49.66504797 -1.13835574 42.51096935 -1.13301457 35.35688102 C-1.13037712 31.70316327 -1.12937323 28.04946386 -1.13266373 24.39574623 C-1.1361689 20.4440368 -1.1319984 16.49235775 -1.12698364 12.54064941 C-1.12921436 11.37306894 -1.13144509 10.20548846 -1.13374341 9.00252676 C-1.13113566 7.95265034 -1.12852791 6.90277392 -1.12584114 5.82108307 C-1.12567879 4.90763831 -1.12551644 3.99419354 -1.12534916 3.05306864 C-1 1 -1 1 0 0 Z " fill="#000000" transform="translate(1237,137)"/>
<path d="M0 0 C6.62783455 6.56769086 8.3519714 13.23736299 8.5 22.4375 C8.38492891 31.53233883 5.86972514 38.19819685 -0.3125 44.875 C-10.67772416 54.08853258 -26.06122627 52.98506807 -39 52.375 C-47.78902154 51.68783816 -55.17440277 48.20059723 -61.4375 41.9375 C-67.07950127 32.68461791 -68.18491527 23.31698005 -66.375 12.75 C-64.61374996 5.77889845 -59.93258191 0.29868244 -53.9765625 -3.59765625 C-38.42682876 -11.67983011 -13.82365909 -11.12635975 0 0 Z " fill="#000000" transform="translate(1293,33.625)"/>
</svg>
